# xmcd
#
# Track frame offsets: 
#        150
#        13050
#        35175
#        47700
#        61275
#        75450
#        90600
#        101850
#        119025
#        127650
#        137325
#        158325
#        188325
#        203925
#        224250
#        242250
#
# Disc length: 3411 seconds
#
# Revision: 0
# Processed by: cddbd v1.5.2PL0 Copyright (c) Steve Scherf et al.
# Submitted via: ExactAudioCopy v1.0b3
#
DISCID=cc0d5110
DTITLE=李素华-徐明钱合唱 - 中国小调金曲精华之三
DYEAR=1994
DGENRE=
TTITLE0=刘三姐
TTITLE1=渴望
TTITLE2=敖包相会
TTITLE3=牧羊姑娘
TTITLE4=南泥湾
TTITLE5=我的祖国
TTITLE6=白毛女
TTITLE7=妹妹找哥泪花流
TTITLE8=采茶扑蝶
TTITLE9=彩虹妹妹
TTITLE10=歌唱二郎山
TTITLE11=答案
TTITLE12=凤阳花鼓
TTITLE13=信天游
TTITLE14=五哥放羊
TTITLE15=草原晨曲
EXTD=
EXTT0=
EXTT1=
EXTT2=
EXTT3=
EXTT4=
EXTT5=
EXTT6=
EXTT7=
EXTT8=
EXTT9=
EXTT10=
EXTT11=
EXTT12=
EXTT13=
EXTT14=
EXTT15=
PLAYORDER=
